<svg xmlns="http://www.w3.org/2000/svg" width="74" height="74" viewBox="0 0 74 74">
  <g id="Group_6017" data-name="Group 6017" transform="translate(-789 -13438)">
    <circle id="Ellipse_32" data-name="Ellipse 32" cx="37" cy="37" r="37" transform="translate(789 13438)" fill="#333"/>
    <g id="Group_6016" data-name="Group 6016" transform="translate(68.875 -271.773)">
      <path id="Path_1274" data-name="Path 1274" d="M21.287.047A36.147,36.147,0,0,1,30.535.7a17.3,17.3,0,0,1,9.283,4.92,15.714,15.714,0,0,1,3.943,7.935,23.967,23.967,0,0,1-.174,10.424,15.23,15.23,0,0,1-9.7,11.039,26.183,26.183,0,0,1-9.3,1.688c-2.323.04-4.656.043-6.973-.118A21.176,21.176,0,0,1,7.139,33.315a15.067,15.067,0,0,1-6.5-9.656A22.1,22.1,0,0,1,1.749,9.678,14.822,14.822,0,0,1,9.9,1.862a25.581,25.581,0,0,1,8.377-1.8c1-.067,2.007-.011,3.011-.011m.081,33.516c1.88-.1,3.766-.147,5.64-.312a19.041,19.041,0,0,0,6.9-1.831,11.629,11.629,0,0,0,6.143-7.048,19.89,19.89,0,0,0,.361-10.733,11.971,11.971,0,0,0-3.39-6.156,14.718,14.718,0,0,0-7.617-3.633,40.408,40.408,0,0,0-8.84-.577A26.093,26.093,0,0,0,11.5,4.8a11.814,11.814,0,0,0-7.213,7.513,20.02,20.02,0,0,0-.67,9.3A12.315,12.315,0,0,0,12.75,32.383a31.625,31.625,0,0,0,8.618,1.18" transform="translate(735 13728.409)" fill="#fff"/>
      <path id="Path_1275" data-name="Path 1275" d="M79.429,85.98a29.309,29.309,0,0,1-8.01-.854,9.2,9.2,0,0,1-7.147-8.72,19.586,19.586,0,0,1,.3-5.989,8.786,8.786,0,0,1,5.992-6.735,20.856,20.856,0,0,1,5.8-1.043,44.642,44.642,0,0,1,8.23.2,16.5,16.5,0,0,1,4.921,1.334,8.423,8.423,0,0,1,4.846,5.91,17.645,17.645,0,0,1,.075,8.059,8.825,8.825,0,0,1-6.594,6.862,28.834,28.834,0,0,1-8.413.972" transform="translate(677.629 13672.497)" fill="#fff"/>
    </g>
  </g>
</svg>
