<svg xmlns="http://www.w3.org/2000/svg" xmlns:xlink="http://www.w3.org/1999/xlink" width="74" height="74" viewBox="0 0 74 74">
  <defs>
    <clipPath id="clip-path">
      <rect id="Rectangle_1103" data-name="Rectangle 1103" width="35.768" height="19.963" fill="#fff"/>
    </clipPath>
  </defs>
  <g id="Group_6011" data-name="Group 6011" transform="translate(-580 -13429)">
    <circle id="Ellipse_32" data-name="Ellipse 32" cx="37" cy="37" r="37" transform="translate(580 13429)" fill="#333"/>
    <g id="Group_6010" data-name="Group 6010" transform="translate(599 13456)">
      <g id="Group_6005" data-name="Group 6005">
        <g id="Group_6004" data-name="Group 6004" transform="translate(0)">
          <g id="Group_6003" data-name="Group 6003" clip-path="url(#clip-path)">
            <path id="Path_1271" data-name="Path 1271" d="M192.7,19.963c-.388-.4-.77-.816-1.166-1.213-1.7-1.7-3.4-3.395-5.081-5.066l2.086-2.068,4.148,4.145L208.485,0l2.253,2.242a2.058,2.058,0,0,0-.438.268q-8.037,8.005-16.064,16.021L192.8,19.963Z" transform="translate(-174.971)" fill="#fff"/>
            <path id="Path_1272" data-name="Path 1272" d="M2.1,20.63,0,18.529l16.678-16.6,6.217,6.14-2.066,2.064L16.74,6.023,2.1,20.63" transform="translate(0 -1.805)" fill="#fff"/>
            <path id="Path_1273" data-name="Path 1273" d="M449.206,215.069l-1.981,1.952-3.843-3.851,1.972-1.946,3.851,3.845" transform="translate(-416.071 -198.213)" fill="#fff"/>
          </g>
        </g>
      </g>
    </g>
  </g>
</svg>
