<svg xmlns="http://www.w3.org/2000/svg" xmlns:xlink="http://www.w3.org/1999/xlink" width="74" height="74" viewBox="0 0 74 74">
  <defs>
    <linearGradient id="linear-gradient" x1="0.848" y1="0.065" x2="0.074" y2="0.939" gradientUnits="objectBoundingBox">
      <stop offset="0" stop-color="#cfcfcf"/>
      <stop offset="1" stop-color="#909090"/>
    </linearGradient>
  </defs>
  <g id="Group_5993" data-name="Group 5993" transform="translate(-463 -12961)">
    <rect id="Rectangle_1099" data-name="Rectangle 1099" width="74" height="74" rx="10" transform="translate(463 12961)" fill="url(#linear-gradient)"/>
    <path id="Path_1265" data-name="Path 1265" d="M28.841,2.6A10.428,10.428,0,0,1,34.1.14a10.818,10.818,0,1,1-6.081,18.124c-1.361-1.392-2.766-2.743-4.126-4.137-.382-.391-.645-.433-1.03-.012-.57.625-1.2,1.193-1.788,1.8-.286.3-.512.377-.836.037-.672-.7-1.364-1.391-2.068-2.063-.294-.28-.238-.474.026-.729.671-.646,1.314-1.321,1.986-1.965.294-.281.3-.493.007-.785-1.57-1.543-3.094-3.135-4.7-4.644A6.863,6.863,0,1,0,9.891,17.6a6.6,6.6,0,0,0,4.571-.963.715.715,0,0,1,1.085.139c.618.667,1.273,1.3,1.931,1.93.308.294.3.476-.05.743a10.994,10.994,0,0,1-13.557-.331A10.844,10.844,0,1,1,18.325,2.969c1.525,1.468,3,2.984,4.506,4.476.162.161.333.313.582.546.739-.754,1.466-1.459,2.148-2.2.382-.417.66-.476,1.067-.021a21,21,0,0,0,1.8,1.791c.464.407.391.675-.025,1.052-.642.583-1.229,1.226-1.855,1.827-.269.259-.293.461-.014.736,1.613,1.59,3.156,3.257,4.836,4.773a6.453,6.453,0,0,0,6.768,1.32,6.4,6.4,0,0,0,4.49-5.283A6.443,6.443,0,0,0,39.62,5.1a6.592,6.592,0,0,0-7.438-.04c-.376.225-.606.245-.923-.083C30.5,4.186,29.7,3.436,28.841,2.6" transform="translate(476.383 12987.184)" fill="#fff"/>
  </g>
</svg>
