<svg xmlns="http://www.w3.org/2000/svg" xmlns:xlink="http://www.w3.org/1999/xlink" width="101" height="101" viewBox="0 0 101 101">
  <defs>
    <linearGradient id="linear-gradient" x1="0.848" y1="0.065" x2="-0.137" y2="1.158" gradientUnits="objectBoundingBox">
      <stop offset="0" stop-color="#01c0ea"/>
      <stop offset="1" stop-color="#009dbf"/>
    </linearGradient>
  </defs>
  <g id="Group_5994" data-name="Group 5994" transform="translate(-583 -12947)">
    <rect id="Rectangle_1100" data-name="Rectangle 1100" width="101" height="101" rx="10" transform="translate(583 12947)" fill="url(#linear-gradient)"/>
    <path id="Path_1264" data-name="Path 1264" d="M45.89,4.141A16.593,16.593,0,0,1,54.254.223a17.254,17.254,0,0,1,20.058,15.09c1.271,9.757-6.7,18.9-16.564,19.091A17.137,17.137,0,0,1,44.579,29.06c-2.166-2.215-4.4-4.364-6.565-6.582-.607-.622-1.026-.69-1.638-.019-.907.994-1.912,1.9-2.845,2.87-.455.474-.815.6-1.33.059-1.069-1.121-2.17-2.213-3.29-3.283-.467-.446-.379-.755.041-1.159,1.067-1.028,2.09-2.1,3.16-3.127.467-.448.485-.784.011-1.25-2.5-2.455-4.923-4.988-7.472-7.39a10.919,10.919,0,1,0-8.915,18.832A10.506,10.506,0,0,0,23.01,26.48a1.138,1.138,0,0,1,1.726.222c.983,1.062,2.025,2.071,3.073,3.071.49.467.471.757-.079,1.182A17.493,17.493,0,0,1,6.16,30.428a17.253,17.253,0,1,1,23-25.7c2.426,2.336,4.78,4.747,7.169,7.122.258.256.53.5.926.868,1.176-1.2,2.332-2.321,3.417-3.507.608-.664,1.05-.758,1.7-.034a33.416,33.416,0,0,0,2.863,2.85c.739.648.621,1.074-.039,1.674-1.022.927-1.955,1.95-2.951,2.907-.429.412-.467.733-.022,1.171,2.567,2.53,5.021,5.182,7.695,7.594a10.268,10.268,0,0,0,10.769,2.1,10.175,10.175,0,0,0,7.144-8.406A10.252,10.252,0,0,0,63.04,8.108C59.179,5.6,55.15,5.681,51.2,8.045c-.6.359-.964.389-1.469-.132C48.523,6.661,47.25,5.467,45.89,4.141" transform="translate(596.054 12980.791)" fill="#fff"/>
  </g>
</svg>
