<svg xmlns="http://www.w3.org/2000/svg" width="74" height="74" viewBox="0 0 74 74">
  <g id="Group_6019" data-name="Group 6019" transform="translate(-789 -13438)">
    <circle id="Ellipse_32" data-name="Ellipse 32" cx="37" cy="37" r="37" transform="translate(789 13438)" fill="#333"/>
    <path id="Path_1276" data-name="Path 1276" d="M26.344,2.377a9.525,9.525,0,0,1,4.8-2.249,9.881,9.881,0,1,1-5.554,16.554c-1.244-1.272-2.527-2.505-3.769-3.778-.348-.357-.589-.4-.94-.011-.521.571-1.1,1.09-1.633,1.648-.261.272-.468.344-.763.034-.613-.644-1.246-1.27-1.889-1.885-.268-.256-.218-.433.023-.665.613-.59,1.2-1.207,1.814-1.8.268-.257.278-.45.007-.717C17.007,8.1,15.615,6.648,14.152,5.27A6.268,6.268,0,1,0,9.034,16.081a6.031,6.031,0,0,0,4.175-.88.653.653,0,0,1,.991.127c.565.61,1.163,1.189,1.764,1.763.281.268.27.435-.045.679a10.042,10.042,0,0,1-12.383-.3,9.9,9.9,0,1,1,13.2-14.756c1.393,1.341,2.744,2.725,4.116,4.088.148.147.3.286.532.5.675-.689,1.339-1.333,1.962-2.013.349-.381.6-.435.974-.019A19.183,19.183,0,0,0,25.966,6.9c.424.372.357.617-.022.961-.586.532-1.123,1.12-1.694,1.669-.246.237-.268.421-.013.672,1.474,1.452,2.883,2.975,4.417,4.36a5.894,5.894,0,0,0,6.182,1.205,5.841,5.841,0,0,0,4.1-4.825,5.885,5.885,0,0,0-2.748-6.289A6.022,6.022,0,0,0,29.4,4.618c-.344.206-.554.223-.843-.076-.7-.719-1.427-1.4-2.208-2.165" transform="translate(804.854 13465.121)" fill="#fff"/>
  </g>
</svg>
