<svg xmlns="http://www.w3.org/2000/svg" width="207" height="29.052" viewBox="0 0 207 29.052">
  <g id="Group_5861" data-name="Group 5861" transform="translate(-111 -5758.081)">
    <g id="Group_5858" data-name="Group 5858">
      <path id="Path_1073" data-name="Path 1073" d="M120.014,23.34V5.854a5.675,5.675,0,0,1,.7-2.942,4.4,4.4,0,0,1,1.906-1.751,6.248,6.248,0,0,1,2.75-.584,10.57,10.57,0,0,1,1.906.159,12.965,12.965,0,0,1,1.29.287l-.807,3.4a5.7,5.7,0,0,0-.653-.159,4.193,4.193,0,0,0-.791-.075,1.75,1.75,0,0,0-1.391.462,1.93,1.93,0,0,0-.393,1.29v17.4Zm7.761-12.911H117.71v-3.4h10.065Z" transform="translate(28.658 5757.677)" fill="#fff"/>
      <path id="Path_1074" data-name="Path 1074" d="M157.609,35.061a3.762,3.762,0,0,0,1.763-.4,3.079,3.079,0,0,0,1.2-1.077,2.8,2.8,0,0,0,.435-1.539V30.315a2.3,2.3,0,0,1-.579.249q-.366.111-.823.2t-.913.159q-.457.069-.828.122a5.6,5.6,0,0,0-1.391.371,2.247,2.247,0,0,0-.924.685,1.7,1.7,0,0,0-.329,1.067,1.622,1.622,0,0,0,.674,1.407,2.873,2.873,0,0,0,1.715.483m-1.3,3.121a6.747,6.747,0,0,1-2.782-.547,4.4,4.4,0,0,1-1.927-1.625,4.811,4.811,0,0,1-.706-2.691,4.756,4.756,0,0,1,.5-2.283,4.038,4.038,0,0,1,1.359-1.486,6.585,6.585,0,0,1,1.959-.849,14.747,14.747,0,0,1,2.309-.4q1.423-.149,2.293-.282a3.2,3.2,0,0,0,1.264-.4.886.886,0,0,0,.393-.785v-.064a1.964,1.964,0,0,0-.632-1.561,2.634,2.634,0,0,0-1.789-.552,3.187,3.187,0,0,0-1.943.536,2.514,2.514,0,0,0-.955,1.343l-4.183-.34a5.719,5.719,0,0,1,1.253-2.575,6.073,6.073,0,0,1,2.415-1.678,9.254,9.254,0,0,1,3.435-.59,10.494,10.494,0,0,1,2.607.318,6.874,6.874,0,0,1,2.219.988,4.833,4.833,0,0,1,1.534,1.714,5.213,5.213,0,0,1,.563,2.5v11h-4.289V35.614h-.128a4.538,4.538,0,0,1-1.051,1.343,4.746,4.746,0,0,1-1.582.9,6.446,6.446,0,0,1-2.134.324" transform="translate(5.441 5743.143)" fill="#fff"/>
      <path id="Path_1075" data-name="Path 1075" d="M212.042,38.192a8.293,8.293,0,0,1-4.305-1.067,7.1,7.1,0,0,1-2.76-2.967,9.563,9.563,0,0,1-.961-4.374,9.523,9.523,0,0,1,.971-4.4,7.185,7.185,0,0,1,2.766-2.962,8.2,8.2,0,0,1,4.268-1.068,8.5,8.5,0,0,1,3.737.775A6.251,6.251,0,0,1,218.3,24.3a6.4,6.4,0,0,1,1.03,3.292h-4.268a3.337,3.337,0,0,0-.95-1.97,2.764,2.764,0,0,0-2.012-.748,3.029,3.029,0,0,0-1.832.568,3.666,3.666,0,0,0-1.216,1.651,7.035,7.035,0,0,0-.435,2.622,7.27,7.27,0,0,0,.43,2.654,3.649,3.649,0,0,0,1.216,1.667,3.224,3.224,0,0,0,3.233.255,2.72,2.72,0,0,0,1.03-.929,3.539,3.539,0,0,0,.536-1.47h4.268a6.685,6.685,0,0,1-1.014,3.286,6.181,6.181,0,0,1-2.5,2.214,8.338,8.338,0,0,1-3.769.8" transform="translate(-31.715 5743.144)" fill="#fff"/>
      <path id="Path_1076" data-name="Path 1076" d="M270.133,31.425V22.06h4.523V38.368h-4.342V35.406h-.17a4.826,4.826,0,0,1-1.832,2.3,5.409,5.409,0,0,1-3.116.87,5.5,5.5,0,0,1-2.878-.743,5.073,5.073,0,0,1-1.938-2.113,7.261,7.261,0,0,1-.706-3.281V22.06H264.2v9.577a3.3,3.3,0,0,0,.776,2.283,2.634,2.634,0,0,0,2.048.839,3.214,3.214,0,0,0,1.529-.376,2.92,2.92,0,0,0,1.153-1.12,3.485,3.485,0,0,0,.429-1.837" transform="translate(-70.652 5742.649)" fill="#fff"/>
      <rect id="Rectangle_1064" data-name="Rectangle 1064" width="4.523" height="21.744" transform="translate(206.119 5759.273)" fill="#fff"/>
      <path id="Path_1077" data-name="Path 1077" d="M337.075,9.057H341.6v15.2a2.023,2.023,0,0,0,.191.972,1.043,1.043,0,0,0,.536.483,2.138,2.138,0,0,0,.8.139,3.52,3.52,0,0,0,.638-.059l.488-.09.712,3.365q-.339.106-.955.25a7.991,7.991,0,0,1-1.5.175,6.831,6.831,0,0,1-2.861-.435,3.994,3.994,0,0,1-1.906-1.55,4.744,4.744,0,0,1-.669-2.654Zm7.591,7.3h-9.821v-3.4h9.821Z" transform="translate(-123.236 5751.746)" fill="#fff"/>
      <path id="Path_1078" data-name="Path 1078" d="M372.121,44.484a9.2,9.2,0,0,1-1.608-.133,6.069,6.069,0,0,1-1.237-.334l1.02-3.376a5.6,5.6,0,0,0,1.439.265,1.83,1.83,0,0,0,1.114-.3,2.233,2.233,0,0,0,.77-1.083l.266-.69-5.85-16.775h4.756l3.377,11.976h.17l3.408-11.976h4.788l-6.339,18.071a7.734,7.734,0,0,1-1.237,2.3,5.216,5.216,0,0,1-1.97,1.518,6.939,6.939,0,0,1-2.866.536" transform="translate(-146.451 5742.649)" fill="#fff"/>
      <path id="Path_1079" data-name="Path 1079" d="M432.387,38.188a6.638,6.638,0,0,1-3.807-1.094,7.22,7.22,0,0,1-2.51-2.994,10.072,10.072,0,0,1-.893-4.332,10.05,10.05,0,0,1,.908-4.364,7.307,7.307,0,0,1,2.522-3,6.544,6.544,0,0,1,3.748-1.088,6.807,6.807,0,0,1,2.962.632,5.881,5.881,0,0,1,2.193,1.773,5.688,5.688,0,0,1,1.088,2.659h-1.911a4.24,4.24,0,0,0-4.3-3.344,4.678,4.678,0,0,0-2.761.844,5.59,5.59,0,0,0-1.874,2.346,8.424,8.424,0,0,0-.674,3.477,8.772,8.772,0,0,0,.658,3.509,5.581,5.581,0,0,0,1.853,2.383,4.66,4.66,0,0,0,2.8.861,4.72,4.72,0,0,0,1.98-.409,4.045,4.045,0,0,0,2.33-2.957h1.911a5.776,5.776,0,0,1-3.2,4.438,6.686,6.686,0,0,1-3.021.658" transform="translate(-186.425 5743.169)" fill="#fff"/>
      <path id="Path_1080" data-name="Path 1080" d="M481.3,36.491a4.944,4.944,0,0,0,2.611-.669,4.617,4.617,0,0,0,1.7-1.778,5.064,5.064,0,0,0,.6-2.448V29.239a1.869,1.869,0,0,1-.706.362,9.514,9.514,0,0,1-1.135.281q-.643.122-1.28.207t-1.147.148a10.576,10.576,0,0,0-2.357.531,3.422,3.422,0,0,0-1.5.992,2.465,2.465,0,0,0-.52,1.62,2.725,2.725,0,0,0,1.062,2.3,4.26,4.26,0,0,0,2.665.812m-.255,1.731a6.214,6.214,0,0,1-2.7-.579,4.666,4.666,0,0,1-1.943-1.677,4.751,4.751,0,0,1-.723-2.671,4.166,4.166,0,0,1,.457-2.038,3.718,3.718,0,0,1,1.295-1.359,7.2,7.2,0,0,1,1.986-.839,18.5,18.5,0,0,1,2.527-.477q1.37-.169,2.321-.3a4.255,4.255,0,0,0,1.449-.4.944.944,0,0,0,.5-.892v-.382a3.489,3.489,0,0,0-.992-2.628,3.937,3.937,0,0,0-2.851-.961,4.908,4.908,0,0,0-2.872.775,4.282,4.282,0,0,0-1.556,1.826l-1.794-.647a5.322,5.322,0,0,1,1.529-2.14,6.142,6.142,0,0,1,2.187-1.157,8.643,8.643,0,0,1,2.452-.356,8.349,8.349,0,0,1,1.949.244,5.614,5.614,0,0,1,1.884.844,4.38,4.38,0,0,1,1.412,1.667,5.958,5.958,0,0,1,.541,2.7V37.85h-1.89V35.27h-.117a5.136,5.136,0,0,1-1.008,1.4,5.216,5.216,0,0,1-1.678,1.115,5.944,5.944,0,0,1-2.368.435" transform="translate(-221.753 5743.167)" fill="#fff"/>
      <path id="Path_1081" data-name="Path 1081" d="M530.631,29.707a9.655,9.655,0,0,0,.589,3.5,5.435,5.435,0,0,0,1.7,2.389,4.632,4.632,0,0,0,5.436-.032,5.613,5.613,0,0,0,1.709-2.426,10.245,10.245,0,0,0,.011-6.816,5.469,5.469,0,0,0-1.7-2.394,4.73,4.73,0,0,0-5.468-.032,5.271,5.271,0,0,0-1.693,2.357,9.572,9.572,0,0,0-.578,3.456m-1.869,14.259V21.542H530.6v3.111h.223a7.951,7.951,0,0,1,.934-1.5,4.889,4.889,0,0,1,1.577-1.3,5.173,5.173,0,0,1,2.479-.531,6.011,6.011,0,0,1,3.53,1.056,6.942,6.942,0,0,1,2.357,2.951,10.767,10.767,0,0,1,.843,4.412,10.829,10.829,0,0,1-.843,4.427,6.972,6.972,0,0,1-2.357,2.962,5.954,5.954,0,0,1-3.509,1.062,5.189,5.189,0,0,1-2.468-.531,4.981,4.981,0,0,1-1.6-1.311,7.3,7.3,0,0,1-.939-1.524h-.17v9.141Z" transform="translate(-258.886 5743.167)" fill="#fff"/>
      <path id="Path_1082" data-name="Path 1082" d="M582.5,9.207h1.9V25.516h-1.9Zm.966-2.8a1.388,1.388,0,0,1-1-.4,1.316,1.316,0,0,1,.006-1.922,1.444,1.444,0,0,1,1.991,0,1.317,1.317,0,0,1-.005,1.922,1.394,1.394,0,0,1-.993.4" transform="translate(-296.165 5755.502)" fill="#fff"/>
      <path id="Path_1083" data-name="Path 1083" d="M599.472,9.057h1.9V25.015a3.089,3.089,0,0,0,.35,1.6,1.946,1.946,0,0,0,.913.817,3.032,3.032,0,0,0,1.2.239,3.655,3.655,0,0,0,.637-.048q.265-.048.468-.1l.4,1.709a4.931,4.931,0,0,1-.679.2,4.7,4.7,0,0,1-1,.09,4.612,4.612,0,0,1-2-.456,3.78,3.78,0,0,1-2.193-3.6Zm5.351,5.553h-7.783V12.964h7.783Z" transform="translate(-306.65 5751.746)" fill="#fff"/>
      <path id="Path_1084" data-name="Path 1084" d="M635.174,36.491a4.945,4.945,0,0,0,2.612-.669,4.618,4.618,0,0,0,1.7-1.778,5.068,5.068,0,0,0,.6-2.448V29.239a1.871,1.871,0,0,1-.706.362,9.521,9.521,0,0,1-1.136.281q-.642.122-1.279.207t-1.147.148a10.57,10.57,0,0,0-2.357.531,3.425,3.425,0,0,0-1.5.992,2.465,2.465,0,0,0-.521,1.62,2.724,2.724,0,0,0,1.062,2.3,4.258,4.258,0,0,0,2.665.812m-.255,1.731a6.221,6.221,0,0,1-2.7-.579,4.672,4.672,0,0,1-1.943-1.677,4.758,4.758,0,0,1-.722-2.671,4.174,4.174,0,0,1,.456-2.038,3.72,3.72,0,0,1,1.3-1.359,7.2,7.2,0,0,1,1.985-.839,18.482,18.482,0,0,1,2.527-.477q1.37-.169,2.32-.3a4.259,4.259,0,0,0,1.449-.4.944.944,0,0,0,.5-.892v-.382a3.489,3.489,0,0,0-.992-2.628,3.938,3.938,0,0,0-2.851-.961,4.911,4.911,0,0,0-2.872.775,4.288,4.288,0,0,0-1.555,1.826l-1.795-.647a5.337,5.337,0,0,1,1.529-2.14,6.142,6.142,0,0,1,2.187-1.157,8.654,8.654,0,0,1,2.453-.356,8.345,8.345,0,0,1,1.948.244,5.61,5.61,0,0,1,1.884.844,4.37,4.37,0,0,1,1.412,1.667,5.95,5.95,0,0,1,.541,2.7V37.85h-1.889V35.27h-.117a5.139,5.139,0,0,1-1.009,1.4,5.222,5.222,0,0,1-1.677,1.115,5.947,5.947,0,0,1-2.368.435" transform="translate(-329.396 5743.167)" fill="#fff"/>
      <rect id="Rectangle_1065" data-name="Rectangle 1065" width="1.89" height="21.744" transform="translate(316.11 5759.273)" fill="#fff"/>
    </g>
    <g id="Group_5860" data-name="Group 5860">
      <g id="Group_5859" data-name="Group 5859">
        <path id="Path_1086" data-name="Path 1086" d="M0,0V23.316H23.319V11.9H17.607V17.6H5.712V5.709h5.712V0Z" transform="translate(111 5758.081)" fill="#fff"/>
        <path id="Path_1087" data-name="Path 1087" d="M47.16,0l9.149,9.149V0Z" transform="translate(78.01 5758.081)" fill="#fff"/>
      </g>
    </g>
  </g>
</svg>
