<svg xmlns="http://www.w3.org/2000/svg" xmlns:xlink="http://www.w3.org/1999/xlink" width="39.332" height="39.395" viewBox="0 0 39.332 39.395">
  <defs>
    <linearGradient id="linear-gradient" x1="0.112" y1="0.937" x2="0.694" y2="0.362" gradientUnits="objectBoundingBox">
      <stop offset="0" stop-color="blue"/>
      <stop offset="1" stop-color="#29c2e2"/>
    </linearGradient>
    <linearGradient id="linear-gradient-2" x1="0.104" y1="0.783" x2="0.798" y2="0.154" xlink:href="#linear-gradient"/>
    <linearGradient id="linear-gradient-3" x1="0.5" x2="0.5" y2="1" gradientUnits="objectBoundingBox">
      <stop offset="0" stop-color="aqua"/>
      <stop offset="1" stop-color="blue"/>
    </linearGradient>
  </defs>
  <g id="Group_5572" data-name="Group 5572" transform="translate(-215 -895)">
    <path id="Union_5" data-name="Union 5" d="M.859,11.545C.1,11.132-.17,10.568.1,9.943a1.58,1.58,0,0,1,.332-.462Q3.319,6.586,6.213,3.7A1.176,1.176,0,0,1,7.95,3.613a1.152,1.152,0,0,1-.1,1.733c-.636.628-1.292,1.235-1.924,1.866-.578.577-1.13,1.18-1.7,1.762-.643.654-1.288,1.306-1.948,1.942a9.407,9.407,0,0,1-.8.628Zm7.078-1.4a1.163,1.163,0,0,1,.021-1.656q.787-.813,1.6-1.6a1.113,1.113,0,0,1,1.307-.241,1.206,1.206,0,0,1,.689,1.189,2.507,2.507,0,0,1-.348.667c-.514.569-1.067,1.1-1.618,1.636a1.2,1.2,0,0,1-.837.35A1.138,1.138,0,0,1,7.937,10.142ZM1.411,3.6a1.144,1.144,0,0,1,.046-1.648C1.993,1.406,2.532.86,3.085.329A1.082,1.082,0,0,1,4.324.1,1.355,1.355,0,0,1,5.1,1.2a4.055,4.055,0,0,1-.452.8c-.5.549-1.033,1.062-1.563,1.581a1.235,1.235,0,0,1-.863.366A1.128,1.128,0,0,1,1.411,3.6Z" transform="translate(215 922.849)" fill="url(#linear-gradient)"/>
    <path id="Path_963" data-name="Path 963" d="M95.088,11.208c.066.077.126.16.2.231q4.778,4.79,9.559,9.578c.071.072.154.132.231.2-.339,1-.622,2.028-1.027,3a26.6,26.6,0,0,1-7.122,9.762q-1.081.956-2.157,1.918c-.084.057-.17.112-.252.173-1.647,1.213-3.272,2.458-4.949,3.629a28.458,28.458,0,0,1-2.79,1.64,2.221,2.221,0,0,1-1.908.428L82.5,39.426c-.1-.1-.2-.192-.306-.289a2.379,2.379,0,0,1,.25-.365c1.807-1.816,3.625-3.62,5.427-5.441A3.444,3.444,0,0,0,83.44,28.09a15.644,15.644,0,0,0-1.725,1.572c-.78.774-1.529,1.581-2.3,2.366q-.931.951-1.881,1.884a2.015,2.015,0,0,1-.337.222q-1.16-1.17-2.319-2.34c-.107-.109-.2-.228-.305-.343a3.255,3.255,0,0,1,0-.9,4.932,4.932,0,0,1,.53-1.265c.889-1.445,1.777-2.894,2.736-4.293.815-1.189,1.727-2.31,2.6-3.461,1.074-1.181,2.117-2.393,3.228-3.538a25.514,25.514,0,0,1,11.015-6.7c.133-.041.273-.059.41-.087m-.713,15.328a4.607,4.607,0,1,0-4.6-4.6,4.548,4.548,0,0,0,4.6,4.6" transform="translate(148.109 884.942)" fill="url(#linear-gradient-2)"/>
    <path id="Path_961" data-name="Path 961" d="M274.852,1.15c.771-.2,1.533-.462,2.316-.6,1.186-.2,2.387-.322,3.582-.48A.659.659,0,0,0,280.918,0h3.148a3.883,3.883,0,0,0,.4.075c.69.06,1.274.224,1.406,1.15.033.234.078.466.117.7V5.078c-.051.36-.119.719-.15,1.081a25.979,25.979,0,0,1-.9,4.794,1.318,1.318,0,0,1-.1.2c-.077-.066-.16-.126-.231-.2q-4.781-4.788-9.559-9.578c-.071-.072-.132-.154-.2-.231" transform="translate(-31.655 895)" fill="url(#linear-gradient-3)"/>
    <path id="Path_964" data-name="Path 964" d="M85.026,176.136a2.019,2.019,0,0,0,.337-.222q.947-.935,1.881-1.884c.769-.786,1.518-1.592,2.3-2.366a15.653,15.653,0,0,1,1.725-1.572,3.444,3.444,0,0,1,4.429,5.242c-1.8,1.821-3.62,3.625-5.427,5.441a2.4,2.4,0,0,0-.25.365,5.514,5.514,0,0,0-.58.475,3.955,3.955,0,0,1-2.136,1.241,3.49,3.49,0,0,1-3.827-2.229,3.414,3.414,0,0,1,.835-3.662c.248-.267.478-.552.716-.828" transform="translate(140.282 742.941)" fill="aqua"/>
    <path id="Path_965" data-name="Path 965" d="M19.362,110.27c-.869,1.151-1.781,2.273-2.6,3.462-.959,1.4-1.847,2.848-2.736,4.293a4.922,4.922,0,0,0-.53,1.265,3.258,3.258,0,0,0,0,.9,6.37,6.37,0,0,0-.838-.448,3.408,3.408,0,0,0-3.758.7,1.17,1.17,0,0,1-1.872-.225,3.475,3.475,0,0,1-.206-3.407,9.99,9.99,0,0,1,2.891-3.662,13.666,13.666,0,0,1,2.912-1.954,10.94,10.94,0,0,1,5.676-1.083c.353.021.7.1,1.054.158" transform="translate(209.182 796.206)" fill="aqua"/>
    <path id="Path_966" data-name="Path 966" d="M169.705,257.737a2.221,2.221,0,0,0,1.908-.428,28.45,28.45,0,0,0,2.79-1.64c1.677-1.171,3.3-2.415,4.949-3.629.082-.06.168-.115.252-.173.055.762.14,1.523.158,2.285a9.665,9.665,0,0,1-.986,4.247,13.941,13.941,0,0,1-3.461,4.583,6.272,6.272,0,0,1-3.153,1.706,3.22,3.22,0,0,1-2.49-.468,1.152,1.152,0,0,1-.24-1.842,3.543,3.543,0,0,0,.323-4.5.475.475,0,0,1-.051-.142" transform="translate(63.274 668.972)" fill="aqua"/>
    <path id="Path_969" data-name="Path 969" d="M227.679,80.017a4.607,4.607,0,1,1,4.6-4.642,4.561,4.561,0,0,1-4.6,4.642" transform="translate(14.805 831.461)" fill="#fff"/>
    <path id="Union_6" data-name="Union 6" d="M.859,11.545C.1,11.132-.17,10.568.1,9.943a1.58,1.58,0,0,1,.332-.462Q3.319,6.586,6.213,3.7A1.176,1.176,0,0,1,7.95,3.613a1.152,1.152,0,0,1-.1,1.733c-.636.628-1.292,1.235-1.924,1.866-.578.577-1.13,1.18-1.7,1.762-.643.654-1.288,1.306-1.948,1.942a9.407,9.407,0,0,1-.8.628Zm7.078-1.4a1.163,1.163,0,0,1,.021-1.656q.787-.813,1.6-1.6a1.113,1.113,0,0,1,1.307-.241,1.206,1.206,0,0,1,.689,1.189,2.507,2.507,0,0,1-.348.667c-.514.569-1.067,1.1-1.618,1.636a1.2,1.2,0,0,1-.837.35A1.138,1.138,0,0,1,7.937,10.142ZM1.411,3.6a1.144,1.144,0,0,1,.046-1.648C1.993,1.406,2.532.86,3.085.329A1.082,1.082,0,0,1,4.324.1,1.355,1.355,0,0,1,5.1,1.2a4.055,4.055,0,0,1-.452.8c-.5.549-1.033,1.062-1.563,1.581a1.235,1.235,0,0,1-.863.366A1.128,1.128,0,0,1,1.411,3.6Z" transform="translate(215 922.849)" fill="url(#linear-gradient)"/>
  </g>
</svg>
