<svg xmlns="http://www.w3.org/2000/svg" xmlns:xlink="http://www.w3.org/1999/xlink" width="67.988" height="57.915" viewBox="0 0 67.988 57.915">
  <defs>
    <linearGradient id="linear-gradient" x1="0.5" x2="0.5" y2="1" gradientUnits="objectBoundingBox">
      <stop offset="0" stop-color="#29c2e2"/>
      <stop offset="1" stop-color="blue"/>
    </linearGradient>
  </defs>
  <g id="Group_6055" data-name="Group 6055" transform="translate(-1037.161 -5414.996)">
    <path id="Path_1294" data-name="Path 1294" d="M67.988,52.821a2.6,2.6,0,0,1-1.843,2.794,48.945,48.945,0,0,1-6.885,1.623,77.2,77.2,0,0,1-16.246.448c-3.364-.245-6.7-.856-10.047-1.352a3.917,3.917,0,0,1-1.786-.661c-1.03-.8-1.852-.552-2.92,0a19.321,19.321,0,1,1-11.225-36.32,19.624,19.624,0,0,1,11.17,1.961c.235.115.469.24.709.346.061.025.145,0,.317-.016,0-1.53.041-3.07-.041-4.6-.014-.26-.518-.623-.856-.718-1.7-.469-3.439-.788-5.119-1.306a2.909,2.909,0,0,1-2.148-3.19c.066-2.146.014-4.3.016-6.448,0-1.895.439-2.746,2.273-3.308A39.8,39.8,0,0,1,29.718.649,86.35,86.35,0,0,1,46.193.187c3.751.217,7.521.46,11.1,1.773,2.158.792,2.524,1.39,2.533,3.692.007,1.014-.308,2.284.181,2.968.417.584,1.782.466,2.712.718A34.129,34.129,0,0,1,66.161,10.4a2.737,2.737,0,0,1,1.827,2.821q-.031,19.8,0,39.605" transform="translate(1037.161 5414.996)" fill="url(#linear-gradient)"/>
    <path id="Path_1295" data-name="Path 1295" d="M28.723,96.914a16.615,16.615,0,1,1-16.628,16.576c0-8.816,7.445-16.757,16.628-16.576M14.807,113.345a13.933,13.933,0,1,0,14.261-13.76,13.959,13.959,0,0,0-14.261,13.76" transform="translate(1027.804 5340.025)" fill="#fff"/>
    <path id="Path_1296" data-name="Path 1296" d="M105.306,31.8a61.918,61.918,0,0,0,16.663,1.753,61.848,61.848,0,0,0,16.559-1.747c0,1.608.047,3.111-.038,4.606a1.268,1.268,0,0,1-.812.858,44.147,44.147,0,0,1-6.287,1.249c-3.826.311-7.674.486-11.512.467a54.052,54.052,0,0,1-12.657-1.34c-1.92-.471-1.916-.488-1.917-2.459V31.8" transform="translate(955.695 5390.392)" fill="#fff"/>
    <path id="Path_1297" data-name="Path 1297" d="M174.528,67.739c0,1.653.057,3.193-.046,4.723-.021.317-.6.772-.984.86a43.078,43.078,0,0,1-6.077,1.156c-3.825.295-7.669.477-11.5.462a53.137,53.137,0,0,1-12.867-1.387c-1.752-.443-1.742-.479-1.742-2.259V69.332c5.631.074,11.152.242,16.67.19s11.055-.221,16.549-1.783" transform="translate(927.843 5362.593)" fill="#fff"/>
    <path id="Path_1298" data-name="Path 1298" d="M142.468,217.191c1.138-1.4,2.172-2.736,3.294-3.995a1.649,1.649,0,0,1,1.192-.29c2.927.2,5.847.549,8.777.669a69.053,69.053,0,0,0,19.691-1.627c0,1.6.048,3.164-.043,4.714-.017.292-.554.72-.914.8a45.786,45.786,0,0,1-6.191,1.179c-3.752.3-7.525.486-11.287.459a50.538,50.538,0,0,1-13.42-1.516c-.381-.107-.748-.266-1.1-.393" transform="translate(926.946 5251.031)" fill="#fff"/>
    <path id="Path_1299" data-name="Path 1299" d="M142.651,104.491a83.615,83.615,0,0,0,32.919-.041c0,1.489.048,3.026-.041,4.555-.017.3-.532.735-.882.812a63.707,63.707,0,0,1-6.4,1.231,84.868,84.868,0,0,1-16.022.245c-1.536-.115-3.068-.291-4.6-.469a1.047,1.047,0,0,1-.67-.333c-1.473-2.02-2.918-4.059-4.3-6" transform="translate(926.805 5334.193)" fill="#fff"/>
    <path id="Path_1300" data-name="Path 1300" d="M164.539,182.363l1.368-5.011c4.471.055,8.9.161,13.327.15a51.734,51.734,0,0,0,13.268-1.648c0,1.6.047,3.1-.038,4.6a1.262,1.262,0,0,1-.8.866,63.418,63.418,0,0,1-6.5,1.269,84.383,84.383,0,0,1-16.014.245c-1.529-.114-3.051-.307-4.6-.467" transform="translate(909.872 5278.955)" fill="#fff"/>
    <path id="Path_1301" data-name="Path 1301" d="M168.877,146.506l-.811-5.264c4.454.085,8.978.243,13.5.237a51.7,51.7,0,0,0,13.657-1.672c0,1.65.049,3.215-.044,4.772-.017.287-.569.7-.935.782-2.089.451-4.182.944-6.3,1.188a88.822,88.822,0,0,1-16.245.245c-.933-.064-1.861-.189-2.823-.289" transform="translate(907.144 5306.84)" fill="#fff"/>
    <path id="Path_1302" data-name="Path 1302" d="M71.5,142.406a8.534,8.534,0,0,0-1.663-1.291c-1.152-.445-2.39-.669-3.538-1.121-2.09-.824-2.991-2.975-1.893-4.751a5.283,5.283,0,0,1,2.125-1.7c.558-.281.841-.494.812-1.124-.038-.82.274-1.426,1.209-1.417.9.009,1.287.565,1.217,1.407-.059.707.234.964.9,1.151a3.475,3.475,0,0,1,2.416,2.477,1.208,1.208,0,0,1-.778,1.638,1.177,1.177,0,0,1-1.563-.728,2.918,2.918,0,0,0-3.894-.871c-.635.483-.457,1.306.456,1.64,1.089.4,2.235.64,3.342.994a3.8,3.8,0,0,1,2.745,2.607,3.945,3.945,0,0,1-2.65,4.824c-.71.245-1.063.52-.981,1.323a1.13,1.13,0,0,1-1.209,1.321,1.143,1.143,0,0,1-1.2-1.336c.063-.776-.241-1.107-.962-1.374a4.585,4.585,0,0,1-2.695-3.006,1.259,1.259,0,0,1,.662-1.784,1.159,1.159,0,0,1,1.663.875c.43,1.652,1.871,2.122,3.638,1.689.572-.14,1.022-.779,1.844-1.446" transform="translate(987.988 5313.651)" fill="#fff"/>
  </g>
</svg>
