<svg xmlns="http://www.w3.org/2000/svg" xmlns:xlink="http://www.w3.org/1999/xlink" width="58.789" height="58.798" viewBox="0 0 58.789 58.798">
  <defs>
    <linearGradient id="linear-gradient" x1="0.554" y1="0.132" x2="0.551" y2="1" gradientUnits="objectBoundingBox">
      <stop offset="0" stop-color="#29c2e2"/>
      <stop offset="1" stop-color="blue"/>
    </linearGradient>
  </defs>
  <g id="Group_6054" data-name="Group 6054" transform="translate(-812.605 -5414.554)">
    <g id="Group_6050" data-name="Group 6050" transform="translate(14.817 14.82)">
      <path id="Path_1286" data-name="Path 1286" d="M58.789,28.2v2.519c-.018.127-.046.254-.053.382a26.812,26.812,0,0,1-.7,4.917A29.1,29.1,0,0,1,44.881,54.384a28.3,28.3,0,0,1-12.35,4.243c-.6.064-1.21.115-1.815.172H28.078c-.1-.017-.195-.038-.292-.049-1.15-.128-2.312-.194-3.451-.394A28.616,28.616,0,0,1,9.594,51.112,28.87,28.87,0,0,1,.117,31.877,28.713,28.713,0,0,1,1.571,19.917,29.377,29.377,0,0,1,25.335.3,28.558,28.558,0,0,1,36.516.887,29,29,0,0,1,53.34,12.4a28.726,28.726,0,0,1,5.277,13.929c.067.624.115,1.25.172,1.875" transform="translate(797.788 5399.734)" fill="url(#linear-gradient)"/>
      <path id="Path_1287" data-name="Path 1287" d="M423.5,419.117a4.51,4.51,0,1,1-4.511-4.51,4.486,4.486,0,0,1,4.511,4.51" transform="translate(408.191 5010.022)" fill="#fff"/>
      <path id="Path_1288" data-name="Path 1288" d="M668.265,419.124a4.51,4.51,0,1,1-4.5-4.518,4.486,4.486,0,0,1,4.5,4.518" transform="translate(178.127 5010.023)" fill="#fff"/>
      <path id="Path_1289" data-name="Path 1289" d="M169.722,419.09a4.511,4.511,0,1,1,4.485,4.536,4.492,4.492,0,0,1-4.485-4.536" transform="translate(638.256 5010.023)" fill="#fff"/>
    </g>
  </g>
</svg>
