<svg xmlns="http://www.w3.org/2000/svg" xmlns:xlink="http://www.w3.org/1999/xlink" width="58.736" height="48.007" viewBox="0 0 58.736 48.007">
  <defs>
    <linearGradient id="linear-gradient" x1="0.5" x2="0.5" y2="1" gradientUnits="objectBoundingBox">
      <stop offset="0" stop-color="#29c2e2"/>
      <stop offset="1" stop-color="blue"/>
    </linearGradient>
  </defs>
  <g id="Group_6053" data-name="Group 6053" transform="translate(-916 -5419.95)">
    <g id="Group_6052" data-name="Group 6052">
      <g id="Group_6051" data-name="Group 6051">
        <path id="Path_1290" data-name="Path 1290" d="M293.213,4.112V16.089A11.569,11.569,0,0,1,292.437,18a4.668,4.668,0,0,1-4.174,2.251q-3.768.021-7.538,0a1.332,1.332,0,0,0-.956.35c-2.192,1.9-4.4,3.78-6.6,5.68a.966.966,0,0,1-1.155.257c-.442-.223-.459-.631-.428-1.06q.156-2.212.3-4.423c.016-.246.025-.493.039-.778a5.174,5.174,0,0,1-3.1-1.183,4.707,4.707,0,0,1-1.706-3.658c-.021-3.527-.031-7.055,0-10.582A4.8,4.8,0,0,1,272.084,0Q280.1,0,288.123,0a4.8,4.8,0,0,1,5,3.918,1.248,1.248,0,0,0,.087.193" transform="translate(681.523 5419.95)" fill="url(#linear-gradient)"/>
        <rect id="Rectangle_1116" data-name="Rectangle 1116" width="14.274" height="19.933" rx="2" transform="translate(916 5443.953)" fill="url(#linear-gradient)"/>
        <path id="Path_1291" data-name="Path 1291" d="M114.458,237.6h3.184c.784,0,1.573.052,2.352-.01a11.913,11.913,0,0,1,6.225,1.4c1.6.777,3.137,1.67,4.687,2.54a2.463,2.463,0,0,0,1.3.369c1.622-.026,3.244-.017,4.866-.007a3.377,3.377,0,0,1,2.359.833,2.045,2.045,0,0,1,.258,2.959A5.293,5.293,0,0,1,136,247.621c-1.39.145-2.8.068-4.205.084-.266,0-.536-.054-.8-.025a1.215,1.215,0,0,0,0,2.427,7.046,7.046,0,0,0,1.277,0c1.559-.128,3.13-.191,4.67-.442a6.175,6.175,0,0,0,4.1-2.484,8.827,8.827,0,0,0,.948-1.839,1.9,1.9,0,0,1,.992-1.084c2.611-1.259,5.2-2.567,7.8-3.849a4.238,4.238,0,0,1,4.865.907,3.661,3.661,0,0,1-.624,5.415,111.011,111.011,0,0,1-13.762,8.571c-2.188,1.146-4.4,2.241-6.613,3.346a12.94,12.94,0,0,1-12.48-.316c-2.437-1.288-4.885-2.554-7.332-3.822-.255-.132-.4.337-.4,0,.013-5.346,0-11.281,0-16.627,0-.07.02.449.031.3" transform="translate(817.836 5207.851)" fill="url(#linear-gradient)"/>
        <path id="Path_1292" data-name="Path 1292" d="M330.46,60.188c-1.96,0-3.919,0-5.879,0a1.092,1.092,0,0,1-1.159-.9,1.077,1.077,0,0,1,.559-1.258,1.531,1.531,0,0,1,.663-.148q5.825-.013,11.651,0c.82,0,1.307.449,1.3,1.16a1.163,1.163,0,0,1-1.312,1.149q-2.913,0-5.825,0" transform="translate(631.272 5368.277)" fill="#fff"/>
        <path id="Path_1293" data-name="Path 1293" d="M328.588,115.637c-1.336,0-2.672,0-4.009,0a1.2,1.2,0,0,1-1.351-1.19,1.223,1.223,0,0,1,1.346-1.149q4.035-.007,8.071,0a1.177,1.177,0,1,1,.006,2.339c-1.354.005-2.708,0-4.062,0" transform="translate(631.413 5318.799)" fill="#fff"/>
      </g>
    </g>
  </g>
</svg>
