<svg xmlns="http://www.w3.org/2000/svg" xmlns:xlink="http://www.w3.org/1999/xlink" width="31.596" height="27.661" viewBox="0 0 31.596 27.661">
  <defs>
    <linearGradient id="linear-gradient" x1="0.405" y1="0.204" x2="0.78" y2="0.881" gradientUnits="objectBoundingBox">
      <stop offset="0" stop-color="#29c2e2"/>
      <stop offset="1" stop-color="blue"/>
    </linearGradient>
  </defs>
  <g id="Group_5977" data-name="Group 5977" transform="translate(-489.553 -5427.867)">
    <g id="Group_5976" data-name="Group 5976" transform="translate(20.35 2.933)">
      <path id="Path_1256" data-name="Path 1256" d="M31.575,9.055c-.01.336-.038.736-.085,1.189a12.333,12.333,0,0,1-1.1,3.969,12.7,12.7,0,0,1-1.14,1.964l-.047.065c.029.034.056.068.083.1a2.312,2.312,0,0,1-.251,3.067,2.692,2.692,0,0,1-1.872.749c-.063,0-.125,0-.188-.007a2.314,2.314,0,0,1-.676,2.111,2.69,2.69,0,0,1-1.872.75c-.069,0-.136,0-.2-.008a2.324,2.324,0,0,1-.67,2.134,2.724,2.724,0,0,1-3.22.4,2.335,2.335,0,0,1-.715,1.57,2.715,2.715,0,0,1-3.662.077l-.018-.016a2.717,2.717,0,0,1-3.6.016,2.362,2.362,0,0,1-.78-1.464,2.737,2.737,0,0,1-1.323.342,2.674,2.674,0,0,1-1.789-.672,2.35,2.35,0,0,1-.8-1.69,2.747,2.747,0,0,1-.863.14A2.673,2.673,0,0,1,5,23.168a2.342,2.342,0,0,1-.8-1.7,2.279,2.279,0,0,1,.036-.461,2.718,2.718,0,0,1-.276.014,2.673,2.673,0,0,1-1.789-.672,2.321,2.321,0,0,1-.082-3.43l.416-.408A12.293,12.293,0,0,1,.063,7.89,8.521,8.521,0,0,1,.4,6.195,8.277,8.277,0,0,1,2.623,2.7,9.049,9.049,0,0,1,6.35.6,10.39,10.39,0,0,1,9.177.2a9.474,9.474,0,0,1,6.332,2.367l.273.244.128-.115.145-.129a9.255,9.255,0,0,1,3.46-1.94A9.767,9.767,0,0,1,22.354.2h.029A9.458,9.458,0,0,1,26,.915a9.356,9.356,0,0,1,2.945,1.919,8.705,8.705,0,0,1,1.966,2.812,7.915,7.915,0,0,1,.662,3.41" transform="translate(469.203 5424.738)" fill="url(#linear-gradient)"/>
      <path id="Path_1257" data-name="Path 1257" d="M456.867,2.628A9.507,9.507,0,0,0,450.328,0H450.3a9.468,9.468,0,0,0-6.164,2.266l-.032.026-1.287,1.262-.05.049L438.508,7.77a2.8,2.8,0,0,0-.31,3.677v.082l.406.364a3.075,3.075,0,0,0,4.17-.09l1.553-1.521.031-.03,2.122-2.079,8.973,8.035a1.221,1.221,0,0,0,1.822-.219l.018-.026.047-.068a12.683,12.683,0,0,0,2.1-5.754c.047-.458.076-.862.086-1.2h0a8.477,8.477,0,0,0-2.658-6.312" transform="translate(41.271 5424.936)" fill="#fff"/>
      <path id="Path_1258" data-name="Path 1258" d="M463.686,307.75l-3.064,3a1.588,1.588,0,0,1-2.142.045,1.357,1.357,0,0,1-.048-2.007l3.065-3a1.588,1.588,0,0,1,2.142-.045,1.356,1.356,0,0,1,.048,2.006" transform="translate(23.498 5140.733)" fill="#fff"/>
      <path id="Path_1259" data-name="Path 1259" d="M289.034,199.81l-3.682,3.607a1.588,1.588,0,0,1-2.142.045,1.357,1.357,0,0,1-.048-2.007l3.682-3.607a1.589,1.589,0,0,1,2.142-.045,1.357,1.357,0,0,1,.048,2.007" transform="translate(194.866 5246.27)" fill="#fff"/>
      <path id="Path_1260" data-name="Path 1260" d="M133.673,99.76l-3.682,3.607a1.588,1.588,0,0,1-2.142.045,1.356,1.356,0,0,1-.048-2.006l3.682-3.607a1.588,1.588,0,0,1,2.142-.045,1.357,1.357,0,0,1,.048,2.007" transform="translate(346.766 5344.092)" fill="#fff"/>
      <path id="Path_1261" data-name="Path 1261" d="M5.621,2.4,2.611,5.35a1.562,1.562,0,0,1-1.1.438A1.567,1.567,0,0,1,.468,5.395,1.357,1.357,0,0,1,.42,3.388L3.431.438A1.589,1.589,0,0,1,5.573.393,1.357,1.357,0,0,1,5.621,2.4" transform="translate(471.311 5439.284)" fill="#fff"/>
    </g>
  </g>
</svg>
