<svg xmlns="http://www.w3.org/2000/svg" xmlns:xlink="http://www.w3.org/1999/xlink" width="42.898" height="33.528" viewBox="0 0 42.898 33.528">
  <defs>
    <linearGradient id="linear-gradient" x1="0.5" x2="0.5" y2="1" gradientUnits="objectBoundingBox">
      <stop offset="0" stop-color="aqua"/>
      <stop offset="1" stop-color="blue"/>
    </linearGradient>
    <linearGradient id="linear-gradient-6" x1="0.5" x2="0.5" y2="1" gradientUnits="objectBoundingBox">
      <stop offset="0" stop-color="#29c2e2"/>
      <stop offset="1" stop-color="blue"/>
    </linearGradient>
  </defs>
  <g id="Group_5810" data-name="Group 5810" transform="translate(-913.523 -838.033)">
    <g id="Group_5576" data-name="Group 5576" transform="translate(913.523 838.033)">
      <rect id="Rectangle_987" data-name="Rectangle 987" width="0.952" height="1.904" transform="translate(9.998 14.383)" fill="url(#linear-gradient)"/>
      <rect id="Rectangle_988" data-name="Rectangle 988" width="0.808" height="2.644" transform="translate(11.371 13.55)" fill="url(#linear-gradient)"/>
      <g id="Group_5577" data-name="Group 5577" transform="translate(0 0)">
        <rect id="Rectangle_989" data-name="Rectangle 989" width="6.059" height="20.265" transform="translate(9.005 13.263)" fill="url(#linear-gradient)"/>
        <rect id="Rectangle_990" data-name="Rectangle 990" width="6.189" height="12.378" transform="translate(0 21.049)" fill="url(#linear-gradient)"/>
        <path id="Path_976" data-name="Path 976" d="M239.694,0,234.33,7.069h2.3V33.528h6.059V7.069h2.368Z" transform="translate(-218.554 0)" fill="url(#linear-gradient)"/>
      </g>
    </g>
    <path id="Path_977" data-name="Path 977" d="M233.652,91.987a10.592,10.592,0,1,1,10.579-10.672,10.486,10.486,0,0,1-10.579,10.672" transform="translate(712.189 777.803)" fill="#fff"/>
    <path id="Path_978" data-name="Path 978" d="M-3.147-6.776V-17.182h.667V-6.776ZM-1.7-13.54a.882.882,0,0,0-.3-.634,1.249,1.249,0,0,0-.819-.228,1.647,1.647,0,0,0-.571.083.7.7,0,0,0-.327.226.553.553,0,0,0-.11.325.511.511,0,0,0,.055.27.614.614,0,0,0,.2.215,1.536,1.536,0,0,0,.354.173,3.8,3.8,0,0,0,.512.138l.683.146a5.135,5.135,0,0,1,1.183.386,2.838,2.838,0,0,1,.8.563,2.06,2.06,0,0,1,.461.726,2.584,2.584,0,0,1,.152.878,2.35,2.35,0,0,1-.411,1.39,2.509,2.509,0,0,1-1.161.866,4.946,4.946,0,0,1-1.811.3A5.1,5.1,0,0,1-4.7-8.04a2.624,2.624,0,0,1-1.252-.99A3.056,3.056,0,0,1-6.4-10.743h2.146a1.273,1.273,0,0,0,.191.642,1.063,1.063,0,0,0,.482.394,1.865,1.865,0,0,0,.742.134,1.774,1.774,0,0,0,.606-.089.818.818,0,0,0,.37-.248.585.585,0,0,0,.13-.362.527.527,0,0,0-.124-.335,1.026,1.026,0,0,0-.392-.26,4.29,4.29,0,0,0-.736-.217l-.829-.179a3.794,3.794,0,0,1-1.742-.8A1.938,1.938,0,0,1-6.187-13.6a2.292,2.292,0,0,1,.425-1.388,2.819,2.819,0,0,1,1.191-.929,4.33,4.33,0,0,1,1.75-.333,4.153,4.153,0,0,1,1.744.337,2.626,2.626,0,0,1,1.136.949,2.574,2.574,0,0,1,.4,1.429Z" transform="translate(948.854 871.45)" fill="url(#linear-gradient-6)"/>
  </g>
</svg>
